<?xml version="1.0" encoding="utf-8" ?>
<svg xmlns="http://www.w3.org/2000/svg" xmlns:xlink="http://www.w3.org/1999/xlink" width="1023" height="768">
	<path fill="#43435E" transform="scale(1.5 1.5)" d="M427.321 131.716C423.833 129.832 415.168 129.766 411.099 129.619C401.309 129.266 391.413 129.775 381.612 129.857Q353.38 129.882 325.171 131.04Q304.554 132.039 284.008 134.016Q269.263 135.575 254.646 138.064C249.284 138.943 243.801 140.274 238.389 140.649C238.89 149.161 240.356 157.467 241.724 165.869C243.389 165.771 245.33 165.451 246.974 165.594C251.503 166.313 265.466 163.729 271.151 163.328C294.929 161.653 318.828 161.631 342.656 161.452C351.671 161.384 361.291 160.103 370.204 161.704C374.168 162.416 377.401 163.779 379.827 167.117C382.181 170.356 382.799 174.27 383.035 178.174C379.732 186.427 371.242 193.643 365.317 200.108Q358.693 207.411 352.242 214.867Q308.572 265.887 269.18 320.275C262.274 329.622 253.397 338.459 248.3 348.951C245.584 354.54 244.203 360.795 246.44 366.789C249.567 371.268 254.362 373.713 259.661 374.698C270.813 376.77 282.752 374.947 294.021 374.864C311.493 374.736 329.003 375.268 346.467 374.88C368.041 374.4 389.613 372.862 411.149 371.556C416.974 371.203 431.728 371.191 436.402 369.452C438.933 369.104 442 369.443 444.587 369.47C444.238 357.532 442.903 346.151 440.145 334.511C437.764 324.462 429.554 304.148 430.293 295.041C430.508 292.385 431.801 290.359 433.686 288.582C438.971 283.601 445.884 280.663 451.784 276.49C461.887 269.343 471.398 261.426 480.829 253.428C462.902 237.612 442.257 226.176 422.624 212.773C426.215 210.237 429.503 206.986 433.502 205.082C437.907 207.614 442.451 209.888 446.846 212.438C457.258 218.478 494.677 240.703 497.345 251.91C497.606 253.008 497.499 254.235 497.569 255.359C487.025 270.571 460.064 287.86 444.535 298.365Q446.414 303.546 447.948 308.839C449.229 313.225 450.344 320.647 452.719 324.27C451.929 329.332 455.875 339.188 456.887 344.637C458.587 353.789 458.548 363.224 459.208 372.485C475.124 357.796 475.194 339.426 476.264 319.396C476.508 314.822 476.476 309.615 479.08 305.642C482.743 300.054 498.991 289.183 504.892 284.644C513.107 278.325 521.43 271.985 528.879 264.761C531.354 262.361 537.272 257.137 537.331 253.621C537.343 253.308 537.357 253.033 537.262 252.729C534.713 244.507 478.499 201.313 468.098 193.712C465.312 191.677 462.228 188.863 459.092 187.447C454.813 183.797 447.6 179.781 442.659 176.494C448.599 177.792 454.49 179.803 460.231 181.788C490.933 192.4 513.463 209.519 536.7 231.655C541.721 236.439 548.887 242.017 552.609 247.803C553.773 249.614 554.453 251.508 553.94 253.671C551.106 265.622 516.15 294.962 505.144 303.315C500.849 306.575 496.439 309.471 491.812 312.234L491.125 312.643C491.479 336.336 489.144 363.473 471.667 381.377C463.968 389.264 453.821 391.818 444.826 397.569C439.23 401.146 434.099 405.419 428.712 409.296C418.013 416.996 385.727 439.929 374.296 440.025C373.232 440.034 372.105 439.924 371.349 439.083C370.539 438.182 370.503 436.808 370.626 435.669C370.895 433.156 371.927 430.625 372.975 428.349C375.152 423.622 378.077 419.273 380.549 414.698C384.003 408.307 390.907 391.833 395.621 387.992C396.067 387.629 396.119 387.681 396.692 387.706C399.654 392.307 397.257 407.012 396.193 412.502C409.477 407.407 437.668 387.086 443.628 374.173C444.067 373.22 444.442 372.234 444.811 371.252C395.03 388.153 341.14 390.313 289.046 390.197C276.594 390.169 257.365 391.482 246.264 385.939C239.373 382.499 234.285 376.225 231.881 368.959C229.352 361.314 229.9 353.325 233.571 346.157C236.785 339.881 241.181 334.339 245.333 328.671L260.556 307.887Q296.65 258.093 336.592 211.327Q347.005 199.102 357.671 187.097C361.06 183.328 364.7 179.754 367.984 175.898C360.441 175.167 352.967 175.641 345.408 175.669L307.561 175.686L268.203 175.669C259.891 175.635 251.657 175.148 243.359 175.882C245.69 182.743 255.545 209.875 252.792 215.382C252.022 216.923 250.2 218.41 248.894 219.492C241.687 225.463 233.726 230.672 226.124 236.127C218.238 241.785 210.558 247.727 202.628 253.319C207.091 256.789 211.324 260.528 215.722 264.076C225.683 272.111 235.899 279.841 246.813 286.545C252.045 289.758 257.474 292.898 263.215 295.113C259.405 295.137 255.587 295.113 251.779 295.236C247.68 293.362 239.041 292.206 234.013 290.517C221.007 286.147 209.85 277.773 199.319 269.228C195.823 266.391 192.047 263.568 189.206 260.049C187.612 258.074 185.954 255.132 186.346 252.502C187.854 242.397 229.718 214.943 238.724 208.806C234.836 199.334 231.041 187.603 229.08 177.505C227.717 170.492 224.794 143.743 222.935 140.045C223.664 137.376 223.337 133.855 223.276 131.065C211.746 140.478 207.791 154.959 206.364 169.179C205.992 172.887 205.742 176.64 205.797 180.369C205.873 185.468 207.479 195.018 205.997 199.5C205.463 201.115 203.674 202.655 202.387 203.71C198.193 207.146 193.566 210.178 189.206 213.413Q181.573 219.169 174.357 225.439C164.082 234.295 154.87 244.318 144.776 253.38C146.152 254.798 147.515 256.429 149.073 257.639C152.925 263.105 158.59 267.874 163.522 272.364C177.542 285.128 192.372 296.702 207.117 308.588C211.828 312.386 216.959 318.072 222.447 320.546C224.629 322.141 236.132 330.381 236.967 332.064C234.326 332.245 228.508 329.454 225.751 328.39C200.315 318.576 180.949 306.492 160.448 288.619C154.612 283.532 149.063 278.093 143.427 272.786C139.261 268.865 134.676 265.044 131.071 260.592C129.848 259.081 128.076 256.688 127.99 254.665C127.763 249.348 138.009 239.393 141.744 235.795C153.103 224.855 165.347 214.917 177.584 204.989C182.391 201.089 187.033 196.739 192.055 193.151C191.428 186.992 191.876 180.738 192.312 174.58C193.511 157.621 196.085 139.349 207.129 125.702C209.346 122.962 211.823 120.607 214.745 118.632C220.784 114.549 227.742 112.146 233.943 108.375C240.416 104.439 263.946 85.4553 268.984 85.3204C269.988 85.2935 270.832 85.7574 271.518 86.4644C272.609 87.589 273.413 89.2029 274.116 90.5918C268.893 100.984 255.633 109.635 246.583 116.773C243.522 119.187 240 121.737 237.536 124.779C237.84 129.62 238.258 134.481 238.435 139.327C243.145 136.884 247.744 134.692 252.771 132.982C265.061 128.801 277.997 126.602 290.778 124.52Q316.214 120.491 341.879 118.361Q367.544 116.231 393.297 116.011C405.293 115.792 421.426 114.32 432.874 117.928C440.263 120.257 446.593 125.156 450.115 132.13C453.12 138.081 453.458 144.93 451.352 151.224C447.94 161.423 440.244 169.446 433.404 177.447Q428.058 183.74 422.885 190.175Q407.604 208.928 392.629 227.925Q366.046 262.052 341.615 297.751C337.387 304.039 333.202 310.416 329.287 316.903C326.444 321.613 323.856 326.767 320.565 331.17Q366.982 330.906 413.333 333.402C420.331 333.752 427.447 333.613 434.42 334.171C423.74 337.115 413.284 339.243 402.271 340.498Q389.985 341.876 377.659 342.831C370.226 343.387 336.036 344.696 332.31 346.428C329.704 344.911 319.186 346.433 315.391 346.155C311.796 345.892 307.913 345.19 305.496 342.249C303.266 339.534 302.983 336.26 303.828 332.955C306.343 323.124 314.911 312.785 320.448 304.293C345.332 266.134 373.009 230.152 401.086 194.312Q410.953 181.701 421.027 169.253C425.011 164.367 429.311 159.691 432.998 154.572C435.415 151.216 438.368 146.936 438.637 142.688C438.806 140.01 437.694 137.562 435.88 135.651C433.551 133.196 430.695 131.831 427.321 131.716Z"/>
	<path fill="#E2E2B3" fill-opacity="0.82352942" transform="scale(1.5 1.5)" d="M246.974 165.594C263.731 152.239 353.394 140.177 377.544 137.396L406.075 134.326C413.179 133.613 420.317 133.16 427.321 131.716C430.695 131.831 433.551 133.196 435.88 135.651C437.694 137.562 438.806 140.01 438.637 142.688C438.368 146.936 435.415 151.216 432.998 154.572C429.311 159.691 425.011 164.367 421.027 169.253Q410.953 181.7 401.086 194.312C373.009 230.152 345.332 266.134 320.448 304.293C314.911 312.785 306.343 323.124 303.828 332.955C302.983 336.26 303.266 339.534 305.496 342.249C307.913 345.19 311.796 345.892 315.391 346.155C319.186 346.433 329.704 344.911 332.31 346.428C341.828 350.488 352.811 352.1 362.873 354.367C377.652 357.696 392.458 361.255 407.382 363.866C415.177 365.229 429.85 366.197 436.402 369.452C431.728 371.191 416.974 371.203 411.149 371.556C389.613 372.862 368.041 374.4 346.467 374.88C329.003 375.268 311.493 374.736 294.021 374.864C282.752 374.947 270.813 376.77 259.661 374.698C254.362 373.713 249.567 371.268 246.44 366.789C252.668 352.932 264.425 338.424 273.437 326.025Q311.932 272.77 354.797 222.961C358.529 218.554 362.257 214.061 366.248 209.888C371.482 204.414 377.328 199.32 381.642 193.05C383.999 189.624 384.88 185.575 385.886 181.608C384.807 180.528 383.921 179.417 383.035 178.174C382.799 174.27 382.181 170.356 379.827 167.117C377.401 163.779 374.168 162.416 370.204 161.704C361.291 160.103 351.671 161.384 342.656 161.452C318.828 161.631 294.929 161.653 271.151 163.328C265.466 163.729 251.503 166.313 246.974 165.594Z"/>
	<path fill="#E2E2B3" fill-opacity="0.82352942" transform="scale(1.5 1.5)" d="M149.073 257.639C158.728 246.113 177.751 229.32 190.044 220.437C195.612 216.413 208.323 210.253 211.487 204.52C213.361 201.125 213.054 195.686 213.08 191.888C213.205 174.071 212.211 155.392 222.935 140.045C224.794 143.743 227.717 170.492 229.08 177.505C231.041 187.603 234.836 199.334 238.724 208.806C229.718 214.943 187.854 242.397 186.346 252.502C185.954 255.132 187.612 258.074 189.206 260.049C192.047 263.568 195.823 266.391 199.319 269.228C209.85 277.773 221.007 286.147 234.013 290.517C239.041 292.206 247.68 293.362 251.779 295.236C253.92 296.43 256.176 297.423 258.397 298.459Q251.529 302.198 245.019 306.53C239.577 310.118 228.153 319.428 222.447 320.546C216.959 318.072 211.828 312.386 207.117 308.588C192.372 296.702 177.542 285.128 163.522 272.364C158.59 267.874 152.925 263.105 149.073 257.639Z"/>
	<path fill="#E2E2B3" fill-opacity="0.82352942" transform="scale(1.5 1.5)" d="M433.502 205.082C439.94 198.961 451.124 191.431 459.092 187.447C462.228 188.863 465.312 191.677 468.098 193.712C478.499 201.313 534.713 244.507 537.262 252.729C537.357 253.033 537.343 253.308 537.331 253.621C537.272 257.137 531.354 262.361 528.879 264.761C521.43 271.985 513.107 278.325 504.892 284.644C498.991 289.183 482.743 300.054 479.08 305.642C476.476 309.615 476.508 314.822 476.264 319.396C475.194 339.426 475.124 357.796 459.208 372.485C458.548 363.224 458.587 353.789 456.887 344.637C455.875 339.188 451.929 329.332 452.719 324.27C455.197 317.623 454.268 308.918 454.2 301.904C462.312 292.09 499.769 271.585 500.99 261.868C501.288 259.498 498.95 257.05 497.569 255.359C497.499 254.235 497.606 253.008 497.345 251.91C494.677 240.703 457.258 218.478 446.846 212.438C442.451 209.888 437.907 207.614 433.502 205.082Z"/>
</svg>
